# xmcd
#
# Track frame offsets:
#	150
#	19109
#	28685
#	46642
#	58337
#	82435
#	106769
#	127626
#	155030
#	170157
#	243718
#
# Disc length: 3472 seconds
#
# Revision: 0
# Processed by: cddbd v1.5.2PL0 Copyright (c) Steve Scherf et al.
# Submitted via: EasyCDDAExtractor 10.0.3.1
#
DISCID=910d8e0b
DTITLE=Paul Butterfield Blues Band - Droppin' In With [CD1]
DYEAR=1966
DGENRE=Blues
TTITLE0=Blues With A Feeling (Live)
TTITLE1=(Look Over) Yonders Wall (Live)
TTITLE2=Born In Chicago (Live)
TTITLE3=Shake Your Money Maker (Live)
TTITLE4=The Sky Is Crying (Live)
TTITLE5=Oh Pretty Woman (Live)
TTITLE6=Help Me (Live)
TTITLE7=Never Say No (Live)
TTITLE8=So Fine (Live)
TTITLE9=East West (Live)
TTITLE10=Mellow Down Easy (Live)
EXTD=
EXTT0=
EXTT1=
EXTT2=
EXTT3=
EXTT4=
EXTT5=
EXTT6=
EXTT7=
EXTT8=
EXTT9=
EXTT10=
PLAYORDER=
